# xmcd CD database file
#
# Track frame offsets:
#	150
#	15402
#	35972
#	51237
#
# Disc length: 956 seconds
#
# Revision: 0
# Processed by: cddbd v1.5.1PL2 Copyright (c) Steve Scherf et al.
# Submitted via: CDex 1.51
#
DISCID=2e03ba04
DTITLE=吉川ひなの - ハート型の涙
DYEAR=1997
DGENRE=JPop
TTITLE0=ハート型の涙
TTITLE1=ルルル片想い!
TTITLE2=ハート型の涙(Instrumental)
TTITLE3=ルルル片想い!(Instrumental)
EXTD=YEAR: 1997
EXTT0=
EXTT1=
EXTT2=
EXTT3=
PLAYORDER=
